<svg width="109" height="109" viewBox="0 0 109 109" fill="none" xmlns="http://www.w3.org/2000/svg">
<path d="M50.7146 3.08498C51.9473 -0.524812 57.0527 -0.524818 58.2854 3.08498L69.7754 36.7319C70.1756 37.9039 71.0961 38.8244 72.2681 39.2246L105.915 50.7146C109.525 51.9473 109.525 57.0527 105.915 58.2854L72.2681 69.7754C71.0961 70.1756 70.1756 71.0961 69.7754 72.2681L58.2854 105.915C57.0527 109.525 51.9473 109.525 50.7146 105.915L39.2246 72.2681C38.8244 71.0961 37.9039 70.1756 36.7319 69.7754L3.08498 58.2854C-0.524812 57.0527 -0.524819 51.9473 3.08498 50.7146L36.7319 39.2246C37.9039 38.8244 38.8244 37.9039 39.2246 36.7319L50.7146 3.08498Z" fill="#F5F5F5"/>
</svg>
